<svg id="Layer_1" data-name="Layer 1" xmlns="http://www.w3.org/2000/svg" viewBox="0 0 474 557"><defs><style>.cls-1{fill:#fbb000;}.cls-2{fill:#0e2549;}.cls-3{fill:#2e6b99;}.cls-4{fill:#1e5272;}.cls-5{fill:#fff;}.cls-6{fill:#0a295b;}.cls-7{fill:#a1c5e2;}</style></defs><title>candidate</title><path class="cls-1" d="M215.9,461.79c-.18.7-.37,1.4-.56,2.08-8,28.93-21.62,38.05-28.77,35.38-2.32-.86-3.95-3-4.48-6-2.21-12.74,14.1-39.24,14.1-39.24S226.26,421.53,215.9,461.79Z"/><path class="cls-1" d="M238.59,475.09c-.54,3.11-2.32,5.13-4.82,5.72-6.74,1.61-18.71-7.19-25.7-33.1-.12-.44-.24-.88-.35-1.32C198.26,409.62,223.55,436,223.55,436S240.61,463.45,238.59,475.09Z"/><path class="cls-2" d="M233.77,480.81c-6.74,1.61-18.71-7.19-25.7-33.1l4.78-1.28S213.17,466.89,233.77,480.81Z"/><path class="cls-2" d="M215.34,463.87c-8,28.93-21.62,38.05-28.77,35.38,22.28-12.4,25-38.73,25-38.73Z"/><path class="cls-3" d="M290.33,300.19a35.85,35.85,0,0,0-13.56-15.7c-1.3-.84-19.71-14.6-21.19-15.35C244,263.29,152.13,281,136.49,281.7c-1.21.05-7.48,7.35-10.26,15.63-1.67,5-2.31,10.32-.11,14.67.71,1.39,3.37,5.93,6.11,10.56l60.86,105.16L199,437.85l-2.12,6.33-3,8.8,22.64,12.66,74.6-137.88C293.62,322.74,295.19,311.18,290.33,300.19ZM215,390l-4.1,12.23-2.82-9.25-22.25-78.62,25.89-18.62,28.49,24.05Z"/><path class="cls-4" d="M217.47,300.55l-6.32-3.86-6.22,3.9c-16-11.43-48.08-15.68-69.46-18.26A66.68,66.68,0,0,1,151.14,267s14.41-.85,15.62-.9c15.64-.71,77.26-2.8,88.82,3.05,1.48.75,19.89,14.51,21.19,15.35C283.54,288.9,224.18,292.6,217.47,300.55Z"/><path class="cls-5" d="M212.35,86.31s-3.62,27.3-6.56,30-16.71,7.59-16.71,7.59l38.25,34.32,30.21-22.09s-12.74-8.39-13.43-12.19c-1-5.26,3.86-31.55,3.86-31.55Z"/><path class="cls-2" d="M227.22,160.38l-41.37-37.13,2.67-1c5.2-1.86,14.18-5.46,16.14-7.25,1.56-1.63,4.34-16.31,6-29l3.34.44c-.87,6.55-3.94,28.14-7.09,31-2.36,2.17-10.34,5.35-14.63,7L227.43,156l27.18-19.87c-4.2-2.91-11.52-8.43-12.16-11.94-1-5.4,3.36-29.43,3.86-32.16l3.32.61c-1.92,10.45-4.52,27.31-3.86,30.95.33,1.85,6.84,7.22,12.7,11.08l2,1.33Z"/><path class="cls-2" d="M228.65,32.23s-17.36-.34-19.09,9.82c-2,11.58-2.55,26.81-2.72,34.86a6.41,6.41,0,0,0,5.33,6.45l35.06,6a6.41,6.41,0,0,0,7.23-4.53c3.06-10.53,9.34-32.86,8.65-36.51C260.75,35.89,228.65,32.23,228.65,32.23Z"/><path class="cls-5" d="M220.76,97.13c9.74,2.85,22.48,3.08,26.51.22,2.37-1.67,4.54-9.52,6.32-18.6a.77.77,0,0,1,.49-.57c2.7-1,6.77-3.4,7.44-7.94.57-3.93-2.51-3.61-5-2.74a.64.64,0,0,1-.83-.7c1.69-11,2.71-20.77,2.71-20.77l-44.47-7.58s-1.59,9.82-3,20.89a.64.64,0,0,1-1,.4c-2.12-1.76-5.17-3.42-6,.68-1,5.1,3,9.07,5.22,10.58a.77.77,0,0,1,.31.7c-.8,7.84-1.2,14.67-.54,17.23a7.62,7.62,0,0,0,2.65,3.78Z"/><path class="cls-2" d="M236.78,101.05a62.14,62.14,0,0,1-16.5-2.3,1.69,1.69,0,0,1,.95-3.24c10.26,3,21.9,2.71,25.07.47.59-.43,2.77-2.94,5.64-17.56a2.44,2.44,0,0,1,1.56-1.82c1.71-.63,5.75-2.53,6.35-6.6a2.05,2.05,0,0,0-.06-1.27c-.13-.1-.92-.27-2.76.36a2.31,2.31,0,0,1-3-2.54c1.27-8.29,2.16-15.93,2.52-19.12l-41.22-7c-.51,3.27-1.68,10.9-2.76,19.16A2.31,2.31,0,0,1,208.75,61c-1.7-1.4-2.59-1.54-2.76-1.47s-.3.28-.47,1.17c-1,4.91,4,8.49,4.52,8.88a2.44,2.44,0,0,1,1,2.25c-1.21,11.78-.88,15.48-.58,16.63a5.9,5.9,0,0,0,2.09,2.92A1.69,1.69,0,0,1,210.41,94a9.23,9.23,0,0,1-3.19-4.66c-.63-2.43-.49-8.09.44-17.29-3.23-2.43-6.44-6.88-5.46-12,.38-2,1.28-3.22,2.65-3.71s2.83-.16,4.57,1c1.36-10.24,2.79-19.07,2.8-19.17l.27-1.68,47.71,8.13L260,46.21c0,.09-.94,9-2.48,19.24q2.85-.58,4.39.69c1.11.92,1.52,2.39,1.24,4.35-.81,5.48-5.57,8.09-8,9.09-3,14.87-5.35,18-6.9,19.15C246,100.35,241.66,101.05,236.78,101.05Z"/><path d="M212.77,39.44c5.54,9.94,35.08,23.83,54.77-2.81s-26-10.79-40.38-9C221,28.39,208,30.92,212.77,39.44Z"/><path class="cls-5" d="M73.93,255.64s-8.34,11.53-15.14,16-37.16,3.55-37.16,11.19,41.58,3.91,46.4,0,20-17.72,20-17.72Z"/><path class="cls-2" d="M38.05,289c-6.33,0-12-.58-15-2-2.57-1.22-3.11-2.88-3.11-4.06,0-6,10.85-7.53,22.34-9.14,6.46-.91,13.15-1.85,15.58-3.46,6.47-4.28,14.62-15.5,14.7-15.61l1-1.32,17.19,11.61-1.58,1.45c-.62.56-15.24,13.89-20,17.78C66.07,286.62,50.68,289,38.05,289Zm36.27-31c-2.43,3.21-8.94,11.39-14.59,15.14-3.08,2-9.52,2.93-17,4-7.27,1-19.43,2.72-19.43,5.8,0,.28.45.67,1.18,1,8,3.82,38.67.76,42.46-2.32S81.26,269,85.27,265.34Z"/><path class="cls-2" d="M215.91,287.09l3.73-8.18-11.86-17.29a1.69,1.69,0,0,0-2.78,1.91l10.78,15.71-3.59,7.87-44.54,20.64,30.5,91.86a1.68,1.68,0,0,0,2.14,1.07,1.68,1.68,0,0,0,1.06-2.13l-29.55-89,38.42-17.79a1.7,1.7,0,0,0,1,1.61,1.73,1.73,0,0,0,.7.15,1.7,1.7,0,0,0,1.54-1l1-2.23,31.66,26.81L201.33,448.89a1.68,1.68,0,0,0,1,2.14,1.51,1.51,0,0,0,.55.09,1.68,1.68,0,0,0,1.59-1.14l45.53-134Z"/><path class="cls-6" d="M322,311.83s-22.52,5.94-25,6.9c-5.84,2.21-9.08-74.59-13.63-80.71-2.35-3.16-17.9-34.65-19.12-34.49-3.4.43-2.81,66.44-7.12,66.6-29,1.1-104.64-2.65-105.94-3.14-2.55-.95,8.83-70.4,8.83-70.4-4.84,6-16.26,34.71-29.8,48.93A135.42,135.42,0,0,1,83.87,277c-2.5-2.51-16.4-15.87-17.25-19.12-1.3-4.95,31.7-37.55,34.45-42.18l47.49-78.9,35.32-16.42a11,11,0,0,1,9,2.69c24.38,21.79,53,13.65,63.47,9.55a10.92,10.92,0,0,1,8.49.22l25,20.11L327,224.37C329,234.19,331.54,308.78,322,311.83Z"/><polygon class="cls-4" points="210.55 401.72 198.59 437.38 192.73 427.25 207.73 392.47 210.55 401.72"/><path class="cls-2" d="M197.31,487.62a1.56,1.56,0,0,1-.7-.16l-10.74-4.93a1.69,1.69,0,1,1,1.41-3.07L198,484.4a1.69,1.69,0,0,1-.71,3.22Z"/><path class="cls-2" d="M200,479.93a1.63,1.63,0,0,1-.71-.16l-10.73-4.94a1.68,1.68,0,1,1,1.41-3.06l10.73,4.94a1.69,1.69,0,0,1-.7,3.22Z"/><path class="cls-2" d="M202.68,472.23a1.78,1.78,0,0,1-.71-.15l-10.73-4.94a1.68,1.68,0,1,1,1.41-3.06L203.38,469a1.69,1.69,0,0,1-.7,3.22Z"/><path class="cls-2" d="M224,470.08a1.69,1.69,0,0,1-.71-3.22L234,461.92a1.68,1.68,0,1,1,1.41,3.06l-10.74,4.94A1.62,1.62,0,0,1,224,470.08Z"/><path class="cls-2" d="M221.16,462.75a1.71,1.71,0,0,1-1.54-1,1.69,1.69,0,0,1,.83-2.24l10.74-4.94a1.69,1.69,0,0,1,1.41,3.07l-10.74,4.93A1.62,1.62,0,0,1,221.16,462.75Z"/><path class="cls-2" d="M244,70a1.51,1.51,0,0,1-.3,0,1.69,1.69,0,0,1-1.36-2l.19-1a1.69,1.69,0,0,1,3.32.6l-.19,1A1.69,1.69,0,0,1,244,70Z"/><path class="cls-2" d="M223.36,66.44l-.27,0a1.68,1.68,0,0,1-1.4-1.93l.17-1a1.69,1.69,0,1,1,3.33.54L225,65A1.68,1.68,0,0,1,223.36,66.44Z"/><path class="cls-2" d="M227.25,61.13a1.63,1.63,0,0,1-.71-.16,8.81,8.81,0,0,0-6.2-.15,1.69,1.69,0,0,1-1.22-3.15,12.12,12.12,0,0,1,8.85.24,1.69,1.69,0,0,1-.72,3.22Z"/><path class="cls-2" d="M249.15,66a1.71,1.71,0,0,1-1.1-.41,8.77,8.77,0,0,0-5.9-1.91,1.69,1.69,0,0,1-.33-3.36,12.11,12.11,0,0,1,8.42,2.7,1.69,1.69,0,0,1-1.09,3Z"/><path class="cls-2" d="M231.59,79.23h-.15a1.69,1.69,0,0,1,0-3.37h.08a24.2,24.2,0,0,0,3.48-.25A22,22,0,0,1,232.79,69a1.69,1.69,0,0,1,3.31-.66,17.8,17.8,0,0,0,2.08,6,3,3,0,0,1,.47,2.73C238.42,77.72,237.86,79.23,231.59,79.23Zm3.88-2.78h0Z"/><path class="cls-2" d="M239,82.42c.51,1.12-3.53,4-7.51,3.09-6.49-1.41-7.75-6.23-6.22-5.65a19.78,19.78,0,0,0,6.64,2.75C236.1,83.43,238.64,81.68,239,82.42Z"/><rect class="cls-5" x="281.97" y="334.45" width="141.98" height="190.88" transform="translate(-127.95 150.41) rotate(-20.45)"/><path class="cls-2" d="M318.8,546.29l-67.87-182,136.2-50.78L455,495.5Zm-63.53-180L320.78,542l129.88-48.43L385.15,317.83Z"/><path class="cls-5" d="M311,387.37A15.91,15.91,0,1,1,290.56,378,15.91,15.91,0,0,1,311,387.37Z"/><path class="cls-2" d="M296.13,410.52a17.59,17.59,0,1,1,16.47-23.74h0a17.6,17.6,0,0,1-16.47,23.74Zm0-31.82a14.22,14.22,0,1,0,5,27.55A14.22,14.22,0,0,0,309.44,388h0a14.24,14.24,0,0,0-13.32-9.26Z"/><path class="cls-7" d="M331.91,443.4a15.91,15.91,0,1,1-20.46-9.35A15.91,15.91,0,0,1,331.91,443.4Z"/><path class="cls-5" d="M352.08,497.5a15.91,15.91,0,1,1-20.46-9.35A15.9,15.9,0,0,1,352.08,497.5Z"/><path class="cls-2" d="M337.2,520.65a17.59,17.59,0,1,1,16.46-23.74h0a17.6,17.6,0,0,1-16.46,23.74Zm0-31.82a14.09,14.09,0,0,0-5,.9,14.22,14.22,0,1,0,18.29,8.36h0A14.24,14.24,0,0,0,337.16,488.83Z"/><path class="cls-5" d="M319.91,372.42l58-21.61Z"/><path class="cls-2" d="M319.91,374.11a1.69,1.69,0,0,1-.59-3.27l58-21.61a1.69,1.69,0,1,1,1.18,3.16L320.5,374A1.8,1.8,0,0,1,319.91,374.11Z"/><path class="cls-5" d="M327,391.37l27.6-10.29Z"/><path class="cls-2" d="M327,393.06a1.69,1.69,0,0,1-.59-3.27L354,379.5a1.69,1.69,0,0,1,1.18,3.16L327.56,393A1.51,1.51,0,0,1,327,393.06Z"/><path class="cls-5" d="M337.84,424.73l58-21.61Z"/><path class="cls-2" d="M337.84,426.42a1.69,1.69,0,0,1-.59-3.27l58-21.61a1.69,1.69,0,0,1,1.18,3.16l-58,21.62A1.7,1.7,0,0,1,337.84,426.42Z"/><path class="cls-5" d="M344.91,443.69l27.6-10.29Z"/><path class="cls-2" d="M344.91,445.37a1.68,1.68,0,0,1-.59-3.26l27.6-10.3A1.69,1.69,0,0,1,373.1,435l-27.6,10.29A1.78,1.78,0,0,1,344.91,445.37Z"/><path class="cls-5" d="M362,485.22l58-21.61Z"/><path class="cls-2" d="M362,486.91a1.69,1.69,0,0,1-.58-3.27l58-21.61a1.69,1.69,0,0,1,1.18,3.16l-58,21.61A1.71,1.71,0,0,1,362,486.91Z"/><path class="cls-5" d="M369,504.17l27.6-10.29Z"/><path class="cls-2" d="M369,505.86a1.69,1.69,0,0,1-.59-3.27L396,492.3a1.69,1.69,0,1,1,1.18,3.16l-27.6,10.29A1.71,1.71,0,0,1,369,505.86Z"/><path class="cls-6" d="M316.81,453.85l-20.07-10.16a1.69,1.69,0,0,1,1.52-3l17.14,8.67,18.87-35.22a1.68,1.68,0,1,1,3,1.59Z"/><path class="cls-5" d="M304.5,343.73c.66,4.9,11.32,17.83,15.41,17.89s12-19.05,10.65-22.37c-3.15-8-3.42-8.47-15.51-27.79-.34-.54-10.27,1.06-12.37,1.33-3.3.42-2.18,4.5-1.41,11.74C302,331.25,304.06,340.43,304.5,343.73Z"/><path class="cls-2" d="M319.93,363.3h-.05c-5.34-.07-16.38-14.32-17.05-19.35h0c-.15-1.16-.54-3.17-1-5.49-.8-4.2-1.79-9.42-2.26-13.75-.12-1.12-.24-2.16-.36-3.13-.68-5.53-1.22-9.89,3.23-10.47l2-.28c10.84-1.59,11.27-1.44,12-.27,12.18,19.46,12.47,20,15.65,28.07,1.35,3.42-3.47,15.45-7.14,20.76C323.15,362.06,321.54,363.3,319.93,363.3ZM314.05,313c-1.87.08-7,.83-9.08,1.13-.91.14-1.65.25-2.08.3-1,.13-.94,1.62-.31,6.71.12,1,.25,2,.37,3.18.45,4.19,1.43,9.34,2.22,13.48.45,2.37.84,4.42,1,5.68h0c.62,4.65,11,16.38,13.75,16.42.26-.07,1.47-.94,3.35-4.13,3.58-6.09,6.17-14.39,5.71-15.95C325.93,332.09,325.75,331.75,314.05,313Z"/><polygon class="cls-1" points="319.08 302.17 320.79 312.15 297.26 318.62 294.46 307.49 319.08 302.17"/></svg>